<svg width="360" height="640" viewBox="0 0 360 640" fill="none" xmlns="http://www.w3.org/2000/svg">
<g clip-path="url(#clip0_2039_976)">
<rect width="360" height="640" fill="white"/>
<g clip-path="url(#clip1_2039_976)">
<path d="M-59 -17.5H165.98V319.969H-59V-17.5Z" fill="#037FFB"/>
<g clip-path="url(#clip2_2039_976)">
<path d="M-2.75488 -17.5V38.7449H12.5937C12.5896 40.4241 12.9171 42.0877 13.5574 43.64C14.1978 45.1924 15.1383 46.603 16.3252 47.791C17.512 48.979 18.9217 49.9209 20.4734 50.5627C22.0251 51.2046 23.6883 51.5337 25.3676 51.5312C28.7504 51.5312 31.9947 50.1874 34.3868 47.7954C36.7788 45.4033 38.1227 42.159 38.1227 38.7762H53.49V-17.4688L-2.75488 -17.5Z" fill="#7AB8F4"/>
</g>
<g clip-path="url(#clip3_2039_976)">
<path d="M10 10.6225C10.0041 12.3001 9.67723 13.9621 9.03806 15.5132C8.3989 17.0643 7.46003 18.4741 6.2752 19.6619C5.09037 20.8496 3.68287 21.7919 2.1333 22.4349C0.583748 23.0779 -1.07743 23.4088 -2.75509 23.4088V38.7762H-59V-17.4688H-2.75509V-2.10139C0.622364 -2.1014 3.86195 -0.761854 6.25309 1.62344C8.64424 4.00873 9.99173 7.24502 10 10.6225Z" fill="#91C4F5"/>
</g>
<path opacity="0.56" d="M109.735 -17.5H53.4897V38.7449H109.735V-17.5Z" fill="#59AAF8"/>
<path d="M109.735 -17.5H53.4897V38.7449H109.735V-17.5Z" fill="#59AAF8"/>
<path d="M75.65 10.6223V38.7448H63.7261V9.92236C65.1762 10.3877 66.6902 10.6239 68.2132 10.6223H75.65Z" fill="#4099EF"/>
<path d="M99.4983 10.4102V38.7451H87.5869V10.6226H97.2485C98.0036 10.6245 98.757 10.5533 99.4983 10.4102Z" fill="#4099EF"/>
<path d="M53.4897 -17.5H109.735V-1.87641C109.735 1.43849 108.418 4.61763 106.074 6.96162C103.73 9.30561 100.551 10.6225 97.2358 10.6225H68.2197C64.313 10.6225 60.5664 9.07056 57.804 6.30816C55.0416 3.54577 53.4897 -0.200846 53.4897 -4.10746V-17.5Z" fill="#91C4F5"/>
<path d="M81.6124 16.5846C84.9051 16.5846 87.5743 13.9153 87.5743 10.6226C87.5743 7.32991 84.9051 4.66064 81.6124 4.66064C78.3197 4.66064 75.6504 7.32991 75.6504 10.6226C75.6504 13.9153 78.3197 16.5846 81.6124 16.5846Z" fill="#83BDF4"/>
<g clip-path="url(#clip4_2039_976)">
<path d="M165.98 -17.5H109.735V38.7449H165.98V-17.5Z" fill="#3F9DF7"/>
<path d="M165.98 -17.5V38.7449H122.234C118.919 38.7449 115.74 37.4281 113.396 35.0841C111.052 32.7401 109.735 29.5609 109.735 26.246V-7.5509C109.735 -10.1896 110.783 -12.7202 112.649 -14.586C114.515 -16.4518 117.045 -17.5 119.684 -17.5H165.98Z" fill="#59AAF8"/>
<path d="M165.98 -17.5V38.7449H136.383C134.741 38.7449 133.116 38.4216 131.6 37.7935C130.083 37.1654 128.705 36.2447 127.545 35.0841C125.201 32.7401 123.884 29.5609 123.884 26.246V-7.5509C123.884 -10.1896 124.932 -12.7202 126.798 -14.586C128.664 -16.4518 131.194 -17.5 133.833 -17.5H165.98Z" fill="#3F9DF6"/>
<path d="M165.98 -17.4749V38.72H165.873C158.415 38.72 151.262 35.7571 145.988 30.4831C140.714 25.2091 137.751 18.0561 137.751 10.5976C137.751 3.13901 140.714 -4.01404 145.988 -9.28803C151.262 -14.562 158.415 -17.5249 165.873 -17.5249L165.98 -17.4749Z" fill="#318EE7"/>
<path d="M165.98 -9.64453V30.9081H165.88C163.217 30.9081 160.58 30.3832 158.12 29.3635C155.659 28.3439 153.424 26.8493 151.542 24.9654C149.66 23.0814 148.168 20.845 147.15 18.384C146.133 15.9229 145.61 13.2855 145.613 10.6224C145.613 5.24727 147.748 0.0922956 151.549 -3.70849C155.35 -7.50927 160.505 -9.64453 165.88 -9.64453H165.98Z" fill="#59AAF8"/>
</g>
<path d="M109.754 73.1733V38.7451H53.5088H38.1414C38.1414 40.4201 37.8115 42.0788 37.1705 43.6263C36.5295 45.1738 35.59 46.5799 34.4055 47.7643C33.2211 48.9488 31.815 49.8883 30.2675 50.5293C28.72 51.1703 27.0613 51.5002 25.3863 51.5002C22.0045 51.5052 18.7592 50.167 16.3638 47.7798C13.9684 45.3926 12.6191 42.1519 12.6125 38.7701H-2.75488V73.142H25.3676V73.217C25.3692 78.9828 27.6604 84.5119 31.7374 88.5889C35.8144 92.666 41.3436 94.9571 47.1094 94.9588H59.8707C65.6365 94.9571 71.1656 92.666 75.2426 88.5889C79.3196 84.5119 81.6108 78.9828 81.6125 73.217V73.142H91.999V114.42L81.6125 124.869H109.735L100.142 114.42V73.142L109.754 73.1733Z" fill="#2D9AFF"/>
<path d="M-2.75516 122.937V157.365H53.4898H68.8571C68.8571 155.69 69.187 154.032 69.828 152.484C70.469 150.937 71.4086 149.53 72.593 148.346C73.7774 147.162 75.1835 146.222 76.7311 145.581C78.2786 144.94 79.9372 144.61 81.6122 144.61C84.994 144.605 88.2393 145.943 90.6347 148.331C93.0301 150.718 94.3794 153.958 94.3861 157.34H109.753V122.968H81.631V122.893C81.6293 117.128 79.3381 111.598 75.2611 107.521C71.1841 103.444 65.655 101.153 59.8892 101.152H47.1278C41.3621 101.153 35.8329 103.444 31.7559 107.521C27.6789 111.598 25.3877 117.128 25.386 122.893V122.968H14.9995V81.6908L25.386 71.2418H-2.73641L6.85648 81.6908V122.968L-2.75516 122.937Z" fill="#2D9AFF"/>
<path d="M166.061 38.7451H109.816V151.235H166.061V38.7451Z" fill="#1990FF"/>
<path opacity="0.34" d="M166.061 151.235H109.816V207.48H166.061V151.235Z" fill="#7AB8F4"/>
<path d="M166.061 151.235H109.816V163.065H137.938C140.385 163.085 142.725 164.071 144.448 165.808C146.171 167.545 147.138 169.892 147.138 172.339C147.138 173.672 146.851 174.99 146.294 176.201C145.737 177.413 144.925 178.49 143.913 179.357H109.729V191.181H118.915L135.201 207.467H151.925L135.62 191.181H166.061V179.357H157.768C158.562 177.103 158.965 174.729 158.962 172.339C158.967 169.124 158.233 165.951 156.818 163.065H166.061V151.235Z" fill="#91C4F5"/>
<path d="M166.061 71.3232V118.663C159.783 118.663 153.761 116.169 149.322 111.729C144.882 107.29 142.388 101.268 142.388 94.9898C142.388 91.8814 143.001 88.8034 144.19 85.9316C145.38 83.0598 147.124 80.4505 149.322 78.2528C151.52 76.0551 154.13 74.312 157.002 73.123C159.874 71.934 162.953 71.3224 166.061 71.3232Z" fill="#0A7BE7"/>
<path d="M77.1562 207.561L29.8168 207.561C29.8168 201.282 32.3109 195.261 36.7504 190.821C41.1899 186.382 47.2112 183.888 53.4896 183.888C56.5981 183.888 59.6761 184.5 62.5479 185.69C65.4197 186.88 68.0289 188.623 70.2267 190.822C72.4244 193.02 74.1675 195.63 75.3565 198.502C76.5455 201.374 77.1571 204.452 77.1562 207.561Z" fill="#1990FF"/>
<path d="M125.902 94.99C125.902 105.619 130.125 115.813 137.641 123.329C145.157 130.845 155.351 135.068 165.98 135.068V151.235C151.063 151.235 136.757 145.309 126.209 134.761C115.661 124.213 109.735 109.907 109.735 94.99C109.735 80.0729 115.661 65.7668 126.209 55.2189C136.757 44.6709 151.063 38.7451 165.98 38.7451V54.9124C155.351 54.9124 145.157 59.1349 137.641 66.6509C130.125 74.1669 125.902 84.3608 125.902 94.99Z" fill="#0A7BE7"/>
<path d="M53.49 167.402C42.8607 167.402 32.6668 171.625 25.1508 179.141C17.6348 186.657 13.4123 196.851 13.4123 207.48L-2.75495 207.48C-2.75495 192.563 3.17082 178.257 13.7188 167.709C24.2668 157.161 38.5729 151.235 53.49 151.235C68.407 151.235 82.7131 157.161 93.2611 167.709C103.809 178.257 109.735 192.563 109.735 207.48L93.5676 207.48C93.5676 196.851 89.3451 186.657 81.8291 179.141C74.3131 171.625 64.1192 167.402 53.49 167.402Z" fill="#1990FF"/>
<circle cx="-2.75509" cy="263.724" r="56.2449" fill="#7AB8F4"/>
<path d="M53.4898 263.724C53.4898 276.021 49.4604 287.978 42.0183 297.766C34.5762 307.554 24.1316 314.634 12.2831 317.922C0.434685 321.209 -12.1647 320.524 -23.5863 315.969C-35.008 311.415 -44.6226 303.244 -50.9585 292.706C-57.2943 282.168 -60.0022 269.844 -58.6678 257.62C-57.3333 245.397 -52.03 233.947 -43.5696 225.025C-35.1092 216.102 -23.9579 210.198 -11.8226 208.215C0.312626 206.233 12.7632 208.282 23.6231 214.049L-2.75509 263.724H53.4898Z" fill="#91C4F5"/>
<path d="M53.4898 263.724C53.4898 273.336 51.0269 282.787 46.336 291.175C41.6451 299.564 34.8829 306.611 26.6944 311.643C18.5059 316.676 9.16445 319.526 -0.438637 319.922C-10.0417 320.317 -19.586 318.246 -28.1609 313.904C-36.7358 309.563 -44.0551 303.097 -49.4204 295.122C-54.7858 287.148 -58.0182 277.932 -58.8092 268.353C-59.6002 258.775 -57.9234 249.153 -53.9389 240.407C-49.9543 231.66 -43.7949 224.081 -36.0484 218.392L-2.75509 263.724H53.4898Z" fill="#2D9AFF"/>
<rect x="53.4897" y="207.479" width="112.49" height="74.3683" fill="#2D9AFF"/>
<rect x="97.2358" y="281.848" width="24.9977" height="11.8739" fill="#2D9AFF"/>
<rect x="53.4897" y="293.722" width="112.49" height="26.2476" fill="#2D9AFF"/>
<rect x="116.609" y="301.221" width="39.3714" height="11.249" rx="5.62449" fill="#7AB8F4"/>
<circle cx="68.4887" cy="306.846" r="5.62449" fill="#7AB8F4"/>
<circle cx="85.9868" cy="306.846" r="5.62449" fill="#7AB8F4"/>
<path d="M391.041 -17.5H166.061V319.969H391.041V-17.5Z" fill="#037FFB"/>
<path d="M334.796 123.112H391.041V151.235H334.796V123.112Z" fill="#2D9AFF"/>
<g clip-path="url(#clip5_2039_976)">
<path d="M334.795 -17.5V38.7449H319.447C319.451 40.4241 319.123 42.0877 318.483 43.64C317.843 45.1924 316.902 46.603 315.715 47.791C314.529 48.979 313.119 49.9209 311.567 50.5627C310.015 51.2046 308.352 51.5337 306.673 51.5312C303.29 51.5312 300.046 50.1874 297.654 47.7954C295.262 45.4033 293.918 42.159 293.918 38.7762H278.551V-17.4688L334.795 -17.5Z" fill="#7AB8F4"/>
</g>
<g clip-path="url(#clip6_2039_976)">
<path d="M322.041 10.6225C322.036 12.3001 322.363 13.9621 323.002 15.5132C323.642 17.0643 324.58 18.4741 325.765 19.6619C326.95 20.8496 328.358 21.7919 329.907 22.4349C331.457 23.0779 333.118 23.4088 334.796 23.4088V38.7762H391.041V-17.4688H334.796V-2.10139C331.418 -2.1014 328.179 -0.761854 325.787 1.62344C323.396 4.00873 322.049 7.24502 322.041 10.6225Z" fill="#91C4F5"/>
</g>
<path opacity="0.56" d="M222.306 -17.5H278.551V38.7449H222.306V-17.5Z" fill="#59AAF8"/>
<path d="M222.306 -17.5H278.551V38.7449H222.306V-17.5Z" fill="#59AAF8"/>
<path d="M256.391 10.6223V38.7448H268.314V9.92236C266.864 10.3877 265.35 10.6239 263.827 10.6223H256.391Z" fill="#4099EF"/>
<path d="M232.542 10.4102V38.7451H244.454V10.6226H234.792C234.037 10.6245 233.284 10.5533 232.542 10.4102Z" fill="#4099EF"/>
<path d="M278.551 -17.5H222.306V-1.87641C222.306 1.43849 223.623 4.61763 225.967 6.96162C228.311 9.30561 231.49 10.6225 234.805 10.6225H263.821C267.727 10.6225 271.474 9.07056 274.236 6.30816C276.999 3.54577 278.551 -0.200846 278.551 -4.10746V-17.5Z" fill="#91C4F5"/>
<path d="M250.428 16.5846C247.135 16.5846 244.466 13.9153 244.466 10.6226C244.466 7.32991 247.135 4.66064 250.428 4.66064C253.721 4.66064 256.39 7.32991 256.39 10.6226C256.39 13.9153 253.721 16.5846 250.428 16.5846Z" fill="#83BDF4"/>
<g clip-path="url(#clip7_2039_976)">
<path d="M166.061 -17.5H222.306V38.7449H166.061V-17.5Z" fill="#3F9DF7"/>
<path d="M166.061 -17.5V38.7449H209.807C213.122 38.7449 216.301 37.4281 218.645 35.0841C220.989 32.7401 222.306 29.5609 222.306 26.246V-7.5509C222.306 -10.1896 221.257 -12.7202 219.392 -14.586C217.526 -16.4518 214.995 -17.5 212.357 -17.5H166.061Z" fill="#59AAF8"/>
<path d="M166.061 -17.5V38.7449H195.658C197.299 38.7449 198.925 38.4216 200.441 37.7935C201.957 37.1654 203.335 36.2447 204.496 35.0841C206.84 32.7401 208.157 29.5609 208.157 26.246V-7.5509C208.157 -10.1896 207.109 -12.7202 205.243 -14.586C203.377 -16.4518 200.846 -17.5 198.208 -17.5H166.061Z" fill="#3F9DF6"/>
<path d="M166.061 -17.4749V38.72H166.167C173.626 38.72 180.779 35.7571 186.053 30.4831C191.327 25.2091 194.29 18.0561 194.29 10.5976C194.29 3.13901 191.327 -4.01404 186.053 -9.28803C180.779 -14.562 173.626 -17.5249 166.167 -17.5249L166.061 -17.4749Z" fill="#318EE7"/>
<path d="M166.061 -9.64453V30.9081H166.161C168.824 30.9081 171.461 30.3832 173.921 29.3635C176.381 28.3439 178.616 26.8493 180.498 24.9654C182.381 23.0814 183.873 20.845 184.89 18.384C185.908 15.9229 186.43 13.2855 186.428 10.6224C186.428 5.24727 184.292 0.0922956 180.492 -3.70849C176.691 -7.50927 171.536 -9.64453 166.161 -9.64453H166.061Z" fill="#59AAF8"/>
</g>
<path d="M334.796 38.7451H391.041V94.99H334.796V38.7451Z" fill="#7AB8F4"/>
<path d="M362.918 94.99C347.386 94.99 334.796 82.3992 334.796 66.8676C334.796 51.336 347.386 38.7451 362.918 38.7451C378.45 38.7451 391.041 51.336 391.041 66.8676C391.041 82.3992 378.45 94.99 362.918 94.99Z" fill="#2691F5"/>
<path d="M222.287 73.1733V38.7451H278.532H293.899C293.899 40.4201 294.229 42.0788 294.87 43.6263C295.511 45.1738 296.451 46.5799 297.635 47.7643C298.819 48.9488 300.226 49.8883 301.773 50.5293C303.321 51.1703 304.979 51.5002 306.654 51.5002C310.036 51.5052 313.281 50.167 315.677 47.7798C318.072 45.3926 319.421 42.1519 319.428 38.7701H334.795V73.142H306.673V73.217C306.671 78.9828 304.38 84.5119 300.303 88.5889C296.226 92.666 290.697 94.9571 284.931 94.9588H272.17C266.404 94.9571 260.875 92.666 256.798 88.5889C252.721 84.5119 250.43 78.9828 250.428 73.217V73.142H240.041V114.42L250.428 124.869H222.306L231.898 114.42V73.142L222.287 73.1733Z" fill="#2D9AFF"/>
<path d="M334.796 122.937V157.365H278.551H263.183C263.183 155.69 262.853 154.032 262.212 152.484C261.571 150.937 260.632 149.53 259.448 148.346C258.263 147.162 256.857 146.222 255.309 145.581C253.762 144.94 252.103 144.61 250.428 144.61C247.047 144.605 243.801 145.943 241.406 148.331C239.01 150.718 237.661 153.958 237.654 157.34H222.287V122.968H250.41V122.893C250.411 117.128 252.702 111.598 256.779 107.521C260.856 103.444 266.386 101.153 272.151 101.152H284.913C290.678 101.153 296.208 103.444 300.285 107.521C304.362 111.598 306.653 117.128 306.654 122.893V122.968H317.041V81.6908L306.654 71.2418H334.777L325.184 81.6908V122.968L334.796 122.937Z" fill="#2D9AFF"/>
<path d="M165.98 38.7451H222.225V151.235H165.98V38.7451Z" fill="#1990FF"/>
<path opacity="0.34" d="M165.98 151.235H222.225V207.48H165.98V151.235Z" fill="#7AB8F4"/>
<path d="M165.98 151.235H222.225V163.065H194.102C191.655 163.085 189.316 164.071 187.593 165.808C185.87 167.545 184.903 169.892 184.903 172.339C184.902 173.672 185.19 174.99 185.746 176.201C186.303 177.413 187.115 178.49 188.128 179.357H222.312V191.181H213.125L196.839 207.467H180.116L196.421 191.181H165.98V179.357H174.273C173.479 177.103 173.075 174.729 173.079 172.339C173.074 169.124 173.807 165.951 175.223 163.065H165.98V151.235Z" fill="#91C4F5"/>
<path d="M165.979 71.3232V118.663C172.258 118.663 178.279 116.169 182.719 111.729C187.158 107.29 189.652 101.268 189.652 94.9898C189.652 91.8814 189.04 88.8034 187.85 85.9316C186.66 83.0598 184.917 80.4505 182.718 78.2528C180.52 76.0551 177.91 74.312 175.038 73.123C172.166 71.934 169.088 71.3224 165.979 71.3232Z" fill="#0A7BE7"/>
<path d="M254.884 207.561L302.223 207.561C302.223 201.282 299.729 195.261 295.29 190.821C290.85 186.382 284.829 183.888 278.55 183.888C275.442 183.888 272.364 184.5 269.492 185.69C266.62 186.88 264.011 188.623 261.813 190.822C259.616 193.02 257.873 195.63 256.684 198.502C255.495 201.374 254.883 204.452 254.884 207.561Z" fill="#1990FF"/>
<path d="M206.138 94.99C206.138 105.619 201.916 115.813 194.4 123.329C186.884 130.845 176.69 135.068 166.061 135.068V151.235C180.978 151.235 195.284 145.309 205.832 134.761C216.38 124.213 222.306 109.907 222.306 94.99C222.306 80.0729 216.38 65.7668 205.832 55.2189C195.284 44.6709 180.978 38.7451 166.061 38.7451V54.9124C176.69 54.9124 186.884 59.1349 194.4 66.6509C201.916 74.1669 206.138 84.3608 206.138 94.99Z" fill="#0A7BE7"/>
<path d="M278.551 167.402C289.18 167.402 299.374 171.625 306.89 179.141C314.406 186.657 318.628 196.851 318.628 207.48L334.795 207.48C334.795 192.563 328.87 178.257 318.322 167.709C307.774 157.161 293.468 151.235 278.551 151.235C263.633 151.235 249.327 157.161 238.779 167.709C228.231 178.257 222.306 192.563 222.306 207.48L238.473 207.48C238.473 196.851 242.695 186.657 250.211 179.141C257.727 171.625 267.921 167.402 278.551 167.402Z" fill="#1990FF"/>
<g clip-path="url(#clip8_2039_976)">
<path d="M391.04 151.235H334.795V207.48H391.04V151.235Z" fill="#91C4F5"/>
<path opacity="0.61" d="M334.795 151.235L362.918 179.357L334.795 207.48V151.235Z" fill="#5FA7EB"/>
</g>
<circle cx="56.2449" cy="56.2449" r="56.2449" transform="matrix(-1 0 0 1 391.041 207.479)" fill="#7AB8F4"/>
<path d="M278.551 263.724C278.551 276.021 282.58 287.978 290.022 297.766C297.464 307.554 307.909 314.634 319.757 317.922C331.606 321.209 344.205 320.524 355.627 315.969C367.049 311.415 376.663 303.244 382.999 292.706C389.335 282.168 392.043 269.844 390.708 257.62C389.374 245.397 384.071 233.947 375.61 225.025C367.15 216.102 355.998 210.198 343.863 208.215C331.728 206.233 319.277 208.282 308.417 214.049L334.796 263.724H278.551Z" fill="#91C4F5"/>
<path d="M278.551 263.724C278.551 273.336 281.014 282.787 285.705 291.175C290.395 299.564 297.158 306.611 305.346 311.643C313.535 316.676 322.876 319.526 332.479 319.922C342.082 320.317 351.627 318.246 360.201 313.904C368.776 309.563 376.096 303.097 381.461 295.122C386.826 287.148 390.059 277.932 390.85 268.353C391.641 258.775 389.964 249.153 385.979 240.407C381.995 231.66 375.835 224.081 368.089 218.392L334.796 263.724H278.551Z" fill="#2D9AFF"/>
<rect width="112.49" height="74.3683" transform="matrix(-1 0 0 1 278.551 207.479)" fill="#2D9AFF"/>
<rect width="24.9977" height="11.8739" transform="matrix(-1 0 0 1 234.805 281.848)" fill="#2D9AFF"/>
<rect width="112.49" height="26.2476" transform="matrix(-1 0 0 1 278.551 293.722)" fill="#2D9AFF"/>
<rect width="39.3714" height="11.249" rx="5.62449" transform="matrix(-1 0 0 1 215.431 301.221)" fill="#7AB8F4"/>
<circle cx="5.62449" cy="5.62449" r="5.62449" transform="matrix(-1 0 0 1 269.176 301.221)" fill="#7AB8F4"/>
<circle cx="5.62449" cy="5.62449" r="5.62449" transform="matrix(-1 0 0 1 251.678 301.221)" fill="#7AB8F4"/>
<path d="M391.041 657.47H166.061V320H391.041V657.47Z" fill="#037FFB"/>
<path d="M334.796 516.857H391.041V488.735H334.796V516.857Z" fill="#2D9AFF"/>
<g clip-path="url(#clip9_2039_976)">
<path d="M334.795 657.47V601.225H319.447C319.451 599.546 319.123 597.882 318.483 596.33C317.843 594.777 316.902 593.367 315.715 592.179C314.529 590.991 313.119 590.049 311.567 589.407C310.015 588.765 308.352 588.436 306.673 588.438C303.29 588.438 300.046 589.782 297.654 592.174C295.262 594.566 293.918 597.811 293.918 601.194H278.551V657.438L334.795 657.47Z" fill="#7AB8F4"/>
</g>
<g clip-path="url(#clip10_2039_976)">
<path d="M322.041 629.347C322.036 627.67 322.363 626.008 323.002 624.457C323.642 622.905 324.58 621.496 325.765 620.308C326.95 619.12 328.358 618.178 329.907 617.535C331.457 616.892 333.118 616.561 334.796 616.561V601.194H391.041V657.438H334.796V642.071C331.418 642.071 328.179 640.732 325.787 638.346C323.396 635.961 322.049 632.725 322.041 629.347Z" fill="#91C4F5"/>
</g>
<path opacity="0.56" d="M222.306 657.47H278.551V601.225H222.306V657.47Z" fill="#59AAF8"/>
<path d="M222.306 657.47H278.551V601.225H222.306V657.47Z" fill="#59AAF8"/>
<path d="M256.391 629.347V601.225H268.314V630.047C266.864 629.582 265.35 629.346 263.827 629.347H256.391Z" fill="#4099EF"/>
<path d="M232.542 629.56V601.225H244.454V629.347H234.792C234.037 629.345 233.284 629.416 232.542 629.56Z" fill="#4099EF"/>
<path d="M278.551 657.47H222.306V641.846C222.306 638.531 223.623 635.352 225.967 633.008C228.311 630.664 231.49 629.347 234.805 629.347H263.821C267.727 629.347 271.474 630.899 274.236 633.662C276.999 636.424 278.551 640.171 278.551 644.077V657.47Z" fill="#91C4F5"/>
<path d="M250.428 623.386C247.135 623.386 244.466 626.055 244.466 629.348C244.466 632.64 247.135 635.31 250.428 635.31C253.721 635.31 256.39 632.64 256.39 629.348C256.39 626.055 253.721 623.386 250.428 623.386Z" fill="#83BDF4"/>
<g clip-path="url(#clip11_2039_976)">
<path d="M166.061 657.47H222.306V601.225H166.061V657.47Z" fill="#3F9DF7"/>
<path d="M166.061 657.47V601.225H209.807C213.122 601.225 216.301 602.542 218.645 604.886C220.989 607.23 222.306 610.409 222.306 613.724V647.521C222.306 650.159 221.257 652.69 219.392 654.556C217.526 656.422 214.995 657.47 212.357 657.47H166.061Z" fill="#59AAF8"/>
<path d="M166.061 657.47V601.225H195.658C197.299 601.225 198.925 601.548 200.441 602.176C201.957 602.804 203.335 603.725 204.496 604.886C206.84 607.23 208.157 610.409 208.157 613.724V647.521C208.157 650.159 207.109 652.69 205.243 654.556C203.377 656.422 200.846 657.47 198.208 657.47H166.061Z" fill="#3F9DF6"/>
<path d="M166.061 657.445V601.25H166.167C173.626 601.25 180.779 604.213 186.053 609.487C191.327 614.761 194.29 621.914 194.29 629.372C194.29 636.831 191.327 643.984 186.053 649.258C180.779 654.532 173.626 657.495 166.167 657.495L166.061 657.445Z" fill="#318EE7"/>
<path d="M166.061 649.614V609.062H166.161C168.824 609.062 171.461 609.587 173.921 610.606C176.381 611.626 178.616 613.12 180.498 615.004C182.381 616.888 183.873 619.125 184.89 621.586C185.908 624.047 186.43 626.684 186.428 629.347C186.428 634.722 184.292 639.877 180.492 643.678C176.691 647.479 171.536 649.614 166.161 649.614H166.061Z" fill="#59AAF8"/>
</g>
<path d="M334.796 601.225H391.041V544.98H334.796V601.225Z" fill="#7AB8F4"/>
<path d="M362.918 544.98C347.386 544.98 334.796 557.571 334.796 573.102C334.796 588.634 347.386 601.225 362.918 601.225C378.45 601.225 391.041 588.634 391.041 573.102C391.041 557.571 378.45 544.98 362.918 544.98Z" fill="#2691F5"/>
<path d="M222.287 566.796V601.225H278.532H293.899C293.899 599.55 294.229 597.891 294.87 596.343C295.511 594.796 296.451 593.39 297.635 592.205C298.819 591.021 300.226 590.081 301.773 589.44C303.321 588.799 304.979 588.47 306.654 588.47C310.036 588.465 313.281 589.803 315.677 592.19C318.072 594.577 319.421 597.818 319.428 601.2H334.795V566.828H306.673V566.753C306.671 560.987 304.38 555.458 300.303 551.381C296.226 547.304 290.697 545.013 284.931 545.011H272.17C266.404 545.013 260.875 547.304 256.798 551.381C252.721 555.458 250.43 560.987 250.428 566.753V566.828H240.041V525.55L250.428 515.101H222.306L231.898 525.55V566.828L222.287 566.796Z" fill="#2D9AFF"/>
<path d="M334.796 517.032V482.604H278.551H263.183C263.183 484.279 262.853 485.938 262.212 487.485C261.571 489.033 260.632 490.439 259.448 491.623C258.263 492.808 256.857 493.747 255.309 494.388C253.762 495.029 252.103 495.359 250.428 495.359C247.047 495.364 243.801 494.026 241.406 491.639C239.01 489.252 237.661 486.011 237.654 482.629H222.287V517.001H250.41V517.076C250.411 522.842 252.702 528.371 256.779 532.448C260.856 536.525 266.386 538.816 272.151 538.818H284.913C290.678 538.816 296.208 536.525 300.285 532.448C304.362 528.371 306.653 522.842 306.654 517.076V517.001H317.041V558.278L306.654 568.727H334.777L325.184 558.278V517.001L334.796 517.032Z" fill="#2D9AFF"/>
<path d="M165.98 601.225H222.225V488.735H165.98V601.225Z" fill="#1990FF"/>
<path opacity="0.34" d="M165.98 488.735H222.225V432.49H165.98V488.735Z" fill="#7AB8F4"/>
<path d="M165.98 488.735H222.225V476.905H194.102C191.655 476.885 189.316 475.899 187.593 474.162C185.87 472.425 184.903 470.077 184.903 467.631C184.902 466.297 185.19 464.98 185.746 463.768C186.303 462.557 187.115 461.48 188.128 460.612H222.312V448.788H213.125L196.839 432.502H180.116L196.421 448.788H165.98V460.612H174.273C173.479 462.867 173.075 465.24 173.079 467.631C173.074 470.845 173.807 474.018 175.223 476.905H165.98V488.735Z" fill="#91C4F5"/>
<path d="M165.979 568.646V521.307C172.258 521.307 178.279 523.801 182.719 528.241C187.158 532.68 189.652 538.701 189.652 544.98C189.652 548.088 189.04 551.166 187.85 554.038C186.66 556.91 184.917 559.519 182.718 561.717C180.52 563.915 177.91 565.658 175.038 566.847C172.166 568.036 169.088 568.647 165.979 568.646Z" fill="#0A7BE7"/>
<path d="M254.884 432.409L302.223 432.409C302.223 438.687 299.729 444.708 295.29 449.148C290.85 453.587 284.829 456.082 278.55 456.082C275.442 456.082 272.364 455.469 269.492 454.279C266.62 453.09 264.011 451.346 261.813 449.148C259.616 446.949 257.873 444.34 256.684 441.467C255.495 438.595 254.883 435.517 254.884 432.409Z" fill="#1990FF"/>
<path d="M206.138 544.98C206.138 534.35 201.916 524.157 194.4 516.641C186.884 509.125 176.69 504.902 166.061 504.902V488.735C180.978 488.735 195.284 494.661 205.832 505.209C216.38 515.757 222.306 530.063 222.306 544.98C222.306 559.897 216.38 574.203 205.832 584.751C195.284 595.299 180.978 601.225 166.061 601.225V585.057C176.69 585.057 186.884 580.835 194.4 573.319C201.916 565.803 206.138 555.609 206.138 544.98Z" fill="#0A7BE7"/>
<path d="M278.551 472.568C289.18 472.568 299.374 468.345 306.89 460.829C314.406 453.313 318.628 443.119 318.628 432.49L334.795 432.49C334.795 447.407 328.87 461.713 318.322 472.261C307.774 482.809 293.468 488.735 278.551 488.735C263.633 488.735 249.327 482.809 238.779 472.261C228.231 461.713 222.306 447.407 222.306 432.49L238.473 432.49C238.473 443.119 242.695 453.313 250.211 460.829C257.727 468.345 267.921 472.568 278.551 472.568Z" fill="#1990FF"/>
<g clip-path="url(#clip12_2039_976)">
<path d="M391.04 488.735H334.795V432.49H391.04V488.735Z" fill="#91C4F5"/>
<path opacity="0.61" d="M334.795 488.735L362.918 460.612L334.795 432.49V488.735Z" fill="#5FA7EB"/>
</g>
<circle cx="334.796" cy="376.245" r="56.2449" transform="rotate(180 334.796 376.245)" fill="#7AB8F4"/>
<path d="M278.551 376.245C278.551 363.949 282.58 351.992 290.022 342.204C297.464 332.415 307.909 325.336 319.757 322.048C331.606 318.76 344.205 319.446 355.627 324C367.049 328.554 376.663 336.726 382.999 347.264C389.335 357.802 392.043 370.126 390.708 382.349C389.374 394.573 384.071 406.022 375.61 414.945C367.15 423.868 355.998 429.772 343.863 431.755C331.728 433.737 319.277 431.688 308.417 425.921L334.796 376.245H278.551Z" fill="#91C4F5"/>
<path d="M278.551 376.245C278.551 366.634 281.014 357.183 285.705 348.794C290.395 340.406 297.158 333.359 305.346 328.326C313.535 323.294 322.876 320.444 332.479 320.048C342.082 319.652 351.627 321.724 360.201 326.065C368.776 330.407 376.096 336.873 381.461 344.847C386.826 352.822 390.059 362.038 390.85 371.616C391.641 381.195 389.964 390.817 385.979 399.563C381.995 408.309 375.835 415.889 368.089 421.578L334.796 376.245H278.551Z" fill="#2D9AFF"/>
<rect x="278.551" y="432.49" width="112.49" height="74.3683" transform="rotate(180 278.551 432.49)" fill="#2D9AFF"/>
<rect x="234.805" y="358.122" width="24.9977" height="11.8739" transform="rotate(180 234.805 358.122)" fill="#2D9AFF"/>
<rect x="278.551" y="346.248" width="112.49" height="26.2476" transform="rotate(180 278.551 346.248)" fill="#2D9AFF"/>
<rect x="215.431" y="338.749" width="39.3714" height="11.249" rx="5.62449" transform="rotate(180 215.431 338.749)" fill="#7AB8F4"/>
<circle cx="263.552" cy="333.124" r="5.62449" transform="rotate(180 263.552 333.124)" fill="#7AB8F4"/>
<circle cx="246.054" cy="333.124" r="5.62449" transform="rotate(180 246.054 333.124)" fill="#7AB8F4"/>
<path d="M-59 657.47H165.98V320H-59V657.47Z" fill="#037FFB"/>
<g clip-path="url(#clip13_2039_976)">
<path d="M-2.75488 657.47V601.225H12.5937C12.5896 599.546 12.9171 597.882 13.5574 596.33C14.1978 594.777 15.1383 593.367 16.3252 592.179C17.512 590.991 18.9217 590.049 20.4734 589.407C22.0251 588.765 23.6883 588.436 25.3676 588.438C28.7504 588.438 31.9947 589.782 34.3868 592.174C36.7788 594.566 38.1227 597.811 38.1227 601.194H53.49V657.438L-2.75488 657.47Z" fill="#7AB8F4"/>
</g>
<g clip-path="url(#clip14_2039_976)">
<path d="M10 629.347C10.0041 627.67 9.67723 626.008 9.03806 624.457C8.3989 622.905 7.46003 621.496 6.2752 620.308C5.09037 619.12 3.68287 618.178 2.1333 617.535C0.583748 616.892 -1.07743 616.561 -2.75509 616.561V601.194H-59V657.438H-2.75509V642.071C0.622364 642.071 3.86195 640.732 6.25309 638.346C8.64424 635.961 9.99173 632.725 10 629.347Z" fill="#91C4F5"/>
</g>
<path opacity="0.56" d="M109.735 657.47H53.4897V601.225H109.735V657.47Z" fill="#59AAF8"/>
<path d="M109.735 657.47H53.4897V601.225H109.735V657.47Z" fill="#59AAF8"/>
<path d="M75.6505 629.347V601.225H63.7266V630.047C65.1767 629.582 66.6906 629.346 68.2137 629.347H75.6505Z" fill="#4099EF"/>
<path d="M99.4983 629.56V601.225H87.5869V629.347H97.2485C98.0036 629.345 98.757 629.416 99.4983 629.56Z" fill="#4099EF"/>
<path d="M53.4897 657.47H109.735V641.846C109.735 638.531 108.418 635.352 106.074 633.008C103.73 630.664 100.551 629.347 97.2358 629.347H68.2197C64.313 629.347 60.5664 630.899 57.804 633.662C55.0416 636.424 53.4897 640.171 53.4897 644.077V657.47Z" fill="#91C4F5"/>
<path d="M81.6124 623.386C84.9051 623.386 87.5743 626.055 87.5743 629.348C87.5743 632.64 84.9051 635.31 81.6124 635.31C78.3197 635.31 75.6504 632.64 75.6504 629.348C75.6504 626.055 78.3197 623.386 81.6124 623.386Z" fill="#83BDF4"/>
<g clip-path="url(#clip15_2039_976)">
<path d="M165.98 657.47H109.735V601.225H165.98V657.47Z" fill="#3F9DF7"/>
<path d="M165.98 657.47V601.225H122.234C118.919 601.225 115.74 602.542 113.396 604.886C111.052 607.23 109.735 610.409 109.735 613.724V647.521C109.735 650.159 110.783 652.69 112.649 654.556C114.515 656.422 117.045 657.47 119.684 657.47H165.98Z" fill="#59AAF8"/>
<path d="M165.98 657.47V601.225H136.383C134.741 601.225 133.116 601.548 131.6 602.176C130.083 602.804 128.705 603.725 127.545 604.886C125.201 607.23 123.884 610.409 123.884 613.724V647.521C123.884 650.159 124.932 652.69 126.798 654.556C128.664 656.422 131.194 657.47 133.833 657.47H165.98Z" fill="#3F9DF6"/>
<path d="M165.98 657.445V601.25H165.873C158.415 601.25 151.262 604.213 145.988 609.487C140.714 614.761 137.751 621.914 137.751 629.372C137.751 636.831 140.714 643.984 145.988 649.258C151.262 654.532 158.415 657.495 165.873 657.495L165.98 657.445Z" fill="#318EE7"/>
<path d="M165.98 649.614V609.062H165.88C163.217 609.062 160.58 609.587 158.12 610.606C155.659 611.626 153.424 613.12 151.542 615.004C149.66 616.888 148.168 619.125 147.15 621.586C146.133 624.047 145.61 626.684 145.613 629.347C145.613 634.722 147.748 639.877 151.549 643.678C155.35 647.479 160.505 649.614 165.88 649.614H165.98Z" fill="#59AAF8"/>
</g>
<path d="M109.754 566.796V601.225H53.5088H38.1414C38.1414 599.55 37.8115 597.891 37.1705 596.343C36.5295 594.796 35.59 593.39 34.4055 592.205C33.2211 591.021 31.815 590.081 30.2675 589.44C28.72 588.799 27.0613 588.47 25.3863 588.47C22.0045 588.465 18.7592 589.803 16.3638 592.19C13.9684 594.577 12.6191 597.818 12.6125 601.2H-2.75488V566.828H25.3676V566.753C25.3692 560.987 27.6604 555.458 31.7374 551.381C35.8144 547.304 41.3436 545.013 47.1094 545.011H59.8707C65.6365 545.013 71.1656 547.304 75.2426 551.381C79.3196 555.458 81.6108 560.987 81.6125 566.753V566.828H91.999V525.55L81.6125 515.101H109.735L100.142 525.55V566.828L109.754 566.796Z" fill="#2D9AFF"/>
<path d="M-2.75516 517.032V482.604H53.4898H68.8571C68.8571 484.279 69.187 485.938 69.828 487.485C70.469 489.033 71.4086 490.439 72.593 491.623C73.7774 492.808 75.1835 493.747 76.7311 494.388C78.2786 495.029 79.9372 495.359 81.6122 495.359C84.994 495.364 88.2393 494.026 90.6347 491.639C93.0301 489.252 94.3794 486.011 94.3861 482.629H109.753V517.001H81.631V517.076C81.6293 522.842 79.3381 528.371 75.2611 532.448C71.1841 536.525 65.655 538.816 59.8892 538.818H47.1278C41.3621 538.816 35.8329 536.525 31.7559 532.448C27.6789 528.371 25.3877 522.842 25.386 517.076V517.001H14.9995V558.278L25.386 568.727H-2.73641L6.85648 558.278V517.001L-2.75516 517.032Z" fill="#2D9AFF"/>
<path d="M166.061 601.225H109.816V488.735H166.061V601.225Z" fill="#1990FF"/>
<path opacity="0.34" d="M166.061 488.735H109.816V432.49H166.061V488.735Z" fill="#7AB8F4"/>
<path d="M166.061 488.735H109.816V476.905H137.938C140.385 476.885 142.725 475.899 144.448 474.162C146.171 472.425 147.138 470.077 147.138 467.631C147.138 466.297 146.851 464.98 146.294 463.768C145.737 462.557 144.925 461.48 143.913 460.612H109.729V448.788H118.915L135.201 432.502H151.925L135.62 448.788H166.061V460.612H157.768C158.562 462.867 158.965 465.24 158.962 467.631C158.967 470.845 158.233 474.018 156.818 476.905H166.061V488.735Z" fill="#91C4F5"/>
<path d="M166.061 568.646V521.307C159.782 521.307 153.761 523.801 149.321 528.241C144.882 532.68 142.388 538.701 142.388 544.98C142.388 548.088 143 551.166 144.19 554.038C145.38 556.91 147.123 559.519 149.322 561.717C151.52 563.915 154.13 565.658 157.002 566.847C159.874 568.036 162.952 568.647 166.061 568.646Z" fill="#0A7BE7"/>
<path d="M77.1567 432.409L29.8173 432.409C29.8173 438.687 32.3114 444.708 36.7509 449.148C41.1904 453.587 47.2117 456.082 53.4901 456.082C56.5986 456.082 59.6766 455.469 62.5484 454.279C65.4202 453.09 68.0294 451.346 70.2272 449.148C72.4249 446.949 74.168 444.34 75.357 441.467C76.546 438.595 77.1576 435.517 77.1567 432.409Z" fill="#1990FF"/>
<path d="M125.902 544.98C125.902 534.35 130.125 524.157 137.641 516.641C145.157 509.125 155.351 504.902 165.98 504.902V488.735C151.063 488.735 136.757 494.661 126.209 505.209C115.661 515.757 109.735 530.063 109.735 544.98C109.735 559.897 115.661 574.203 126.209 584.751C136.757 595.299 151.063 601.225 165.98 601.225V585.057C155.351 585.057 145.157 580.835 137.641 573.319C130.125 565.803 125.902 555.609 125.902 544.98Z" fill="#0A7BE7"/>
<path d="M53.49 472.568C42.8607 472.568 32.6668 468.345 25.1508 460.829C17.6348 453.313 13.4123 443.119 13.4123 432.49L-2.75495 432.49C-2.75495 447.407 3.17082 461.713 13.7188 472.261C24.2668 482.809 38.5729 488.735 53.49 488.735C68.407 488.735 82.7131 482.809 93.2611 472.261C103.809 461.713 109.735 447.407 109.735 432.49L93.5676 432.49C93.5676 443.119 89.3451 453.313 81.8291 460.829C74.3131 468.345 64.1192 472.568 53.49 472.568Z" fill="#1990FF"/>
<circle cx="56.2449" cy="56.2449" r="56.2449" transform="matrix(1 0 0 -1 -59 432.49)" fill="#7AB8F4"/>
<path d="M53.4898 376.245C53.4898 363.949 49.4604 351.992 42.0183 342.204C34.5762 332.415 24.1316 325.336 12.2831 322.048C0.434685 318.76 -12.1647 319.446 -23.5863 324C-35.008 328.554 -44.6226 336.726 -50.9585 347.264C-57.2943 357.802 -60.0022 370.126 -58.6678 382.349C-57.3333 394.573 -52.03 406.022 -43.5696 414.945C-35.1092 423.868 -23.9579 429.772 -11.8226 431.755C0.312626 433.737 12.7632 431.688 23.6231 425.921L-2.75509 376.245H53.4898Z" fill="#91C4F5"/>
<path d="M53.4898 376.245C53.4898 366.634 51.0269 357.183 46.336 348.794C41.6451 340.406 34.8829 333.359 26.6944 328.326C18.5059 323.294 9.16445 320.444 -0.438637 320.048C-10.0417 319.652 -19.586 321.724 -28.1609 326.065C-36.7358 330.407 -44.0551 336.873 -49.4204 344.847C-54.7858 352.822 -58.0182 362.038 -58.8092 371.616C-59.6002 381.195 -57.9234 390.817 -53.9389 399.563C-49.9543 408.309 -43.7949 415.889 -36.0484 421.578L-2.75509 376.245H53.4898Z" fill="#2D9AFF"/>
<rect width="112.49" height="74.3683" transform="matrix(1 0 0 -1 53.4897 432.49)" fill="#2D9AFF"/>
<rect width="24.9977" height="11.8739" transform="matrix(1 0 0 -1 97.2358 358.122)" fill="#2D9AFF"/>
<rect width="112.49" height="26.2476" transform="matrix(1 0 0 -1 53.4897 346.248)" fill="#2D9AFF"/>
<rect width="39.3714" height="11.249" rx="5.62449" transform="matrix(1 0 0 -1 116.609 338.749)" fill="#7AB8F4"/>
<circle cx="5.62449" cy="5.62449" r="5.62449" transform="matrix(1 0 0 -1 62.8643 338.749)" fill="#7AB8F4"/>
<circle cx="5.62449" cy="5.62449" r="5.62449" transform="matrix(1 0 0 -1 80.3623 338.749)" fill="#7AB8F4"/>
</g>
<rect width="360" height="640" fill="url(#paint0_linear_2039_976)"/>
</g>
<defs>
<linearGradient id="paint0_linear_2039_976" x1="180" y1="0" x2="180" y2="640" gradientUnits="userSpaceOnUse">
<stop stop-color="#2F8FFF" stop-opacity="0.63"/>
<stop offset="1" stop-color="#2F8FFF" stop-opacity="0.82"/>
</linearGradient>
<clipPath id="clip0_2039_976">
<rect width="360" height="640" fill="white"/>
</clipPath>
<clipPath id="clip1_2039_976">
<rect width="360" height="640" fill="white"/>
</clipPath>
<clipPath id="clip2_2039_976">
<rect width="56.2449" height="69" fill="white" transform="translate(-2.75488 -17.5)"/>
</clipPath>
<clipPath id="clip3_2039_976">
<rect width="69" height="56.2449" fill="white" transform="translate(-59 -17.5)"/>
</clipPath>
<clipPath id="clip4_2039_976">
<rect width="56.2449" height="56.2449" fill="white" transform="translate(109.735 -17.5)"/>
</clipPath>
<clipPath id="clip5_2039_976">
<rect width="56.2449" height="69" fill="white" transform="matrix(-1 0 0 1 334.795 -17.5)"/>
</clipPath>
<clipPath id="clip6_2039_976">
<rect width="69" height="56.2449" fill="white" transform="matrix(-1 0 0 1 391.041 -17.5)"/>
</clipPath>
<clipPath id="clip7_2039_976">
<rect width="56.2449" height="56.2449" fill="white" transform="matrix(-1 0 0 1 222.306 -17.5)"/>
</clipPath>
<clipPath id="clip8_2039_976">
<rect width="56.2449" height="56.2449" fill="white" transform="translate(334.795 151.235)"/>
</clipPath>
<clipPath id="clip9_2039_976">
<rect width="56.2449" height="69" fill="white" transform="matrix(-1 0 0 -1 334.795 657.47)"/>
</clipPath>
<clipPath id="clip10_2039_976">
<rect width="69" height="56.2449" fill="white" transform="matrix(-1 0 0 -1 391.041 657.47)"/>
</clipPath>
<clipPath id="clip11_2039_976">
<rect width="56.2449" height="56.2449" fill="white" transform="matrix(-1 0 0 -1 222.306 657.47)"/>
</clipPath>
<clipPath id="clip12_2039_976">
<rect width="56.2449" height="56.2449" fill="white" transform="matrix(1 0 0 -1 334.795 488.735)"/>
</clipPath>
<clipPath id="clip13_2039_976">
<rect width="56.2449" height="69" fill="white" transform="matrix(1 0 0 -1 -2.75488 657.47)"/>
</clipPath>
<clipPath id="clip14_2039_976">
<rect width="69" height="56.2449" fill="white" transform="matrix(1 0 0 -1 -59 657.47)"/>
</clipPath>
<clipPath id="clip15_2039_976">
<rect width="56.2449" height="56.2449" fill="white" transform="matrix(1 0 0 -1 109.735 657.47)"/>
</clipPath>
</defs>
</svg>
