<svg width="120" height="138" viewBox="0 0 120 138" fill="none" xmlns="http://www.w3.org/2000/svg">
<path d="M97.8584 17.7479L97.3501 18.136C79.1832 32.4208 62.9003 58.2142 55.9924 71.6482L31.3213 35.8241L54.4971 48.5118C68.2531 30.0027 87.6461 15.4193 95.6156 10.4487C93.9779 7.30612 91.5096 4.67106 88.4785 2.82918C85.4474 0.987295 81.9691 0.00887894 78.4206 0L29.0784 0C23.9232 0 18.9791 2.04442 15.3338 5.68351C11.6885 9.3226 9.64063 14.2583 9.64062 19.4047L9.64063 67.1702C9.64063 72.3166 11.6885 77.2523 15.3338 80.8914C18.9791 84.5305 23.9232 86.5749 29.0784 86.5749H78.4206C83.5758 86.5749 88.5199 84.5305 92.1652 80.8914C95.8105 77.2523 97.8584 72.3166 97.8584 67.1702V31.7939C97.8583 26.8178 99.6705 22.0114 102.957 18.2703L109.82 10.4487C105.531 12.3494 101.509 14.8034 97.8584 17.7479Z" fill="white"/>
<path d="M20.9305 137.127L20.8976 123.326L14.1289 134.695H11.7303L4.99439 123.622V137.127H0V114.126H4.40295L13.0117 128.419L21.489 114.126H25.8591L25.9249 137.127H20.9305Z" fill="white"/>
<path d="M42.4221 128.978V137.127H37.0991V128.912L28.1946 114.126H33.8462L39.9906 124.345L46.135 114.126H51.3594L42.4221 128.978Z" fill="white"/>
<path d="M57.5043 137.521C55.9491 137.521 54.5143 137.236 53.2 136.667C51.9075 136.075 50.8451 135.243 50.0127 134.17L52.9699 130.621C54.2185 132.308 55.6424 133.151 57.2415 133.151C59.4101 133.151 60.4944 131.88 60.4944 129.339V118.398H52.4114V114.126H65.7845V129.044C65.7845 131.869 65.0835 133.994 63.6816 135.418C62.2797 136.82 60.2206 137.521 57.5043 137.521Z" fill="white"/>
<path d="M82.1811 137.521C79.7934 137.521 77.6358 137.006 75.7081 135.977C73.8023 134.947 72.3018 133.534 71.2066 131.738C70.1332 129.92 69.5965 127.883 69.5965 125.626C69.5965 123.37 70.1332 121.344 71.2066 119.548C72.3018 117.73 73.8023 116.306 75.7081 115.276C77.6358 114.247 79.7934 113.732 82.1811 113.732C84.5688 113.732 86.7155 114.247 88.6212 115.276C90.527 116.306 92.0275 117.73 93.1228 119.548C94.218 121.344 94.7657 123.37 94.7657 125.626C94.7657 127.883 94.218 129.92 93.1228 131.738C92.0275 133.534 90.527 134.947 88.6212 135.977C86.7155 137.006 84.5688 137.521 82.1811 137.521ZM82.1811 132.987C83.5392 132.987 84.7659 132.68 85.8612 132.067C86.9564 131.431 87.8107 130.555 88.4241 129.438C89.0593 128.321 89.377 127.05 89.377 125.626C89.377 124.203 89.0593 122.932 88.4241 121.815C87.8107 120.698 86.9564 119.833 85.8612 119.219C84.7659 118.584 83.5392 118.266 82.1811 118.266C80.823 118.266 79.5963 118.584 78.501 119.219C77.4058 119.833 76.5405 120.698 75.9052 121.815C75.2919 122.932 74.9852 124.203 74.9852 125.626C74.9852 127.05 75.2919 128.321 75.9052 129.438C76.5405 130.555 77.4058 131.431 78.501 132.067C79.5963 132.68 80.823 132.987 82.1811 132.987Z" fill="white"/>
<path d="M115.655 125.166C116.969 125.583 117.999 126.284 118.744 127.269C119.488 128.233 119.861 129.427 119.861 130.851C119.861 132.866 119.072 134.421 117.495 135.517C115.94 136.59 113.662 137.127 110.661 137.127H98.7661V114.126H110.003C112.807 114.126 114.954 114.663 116.444 115.736C117.955 116.81 118.711 118.266 118.711 120.106C118.711 121.224 118.437 122.22 117.889 123.096C117.364 123.973 116.619 124.663 115.655 125.166ZM104.056 118.135V123.556H109.346C110.661 123.556 111.657 123.326 112.336 122.866C113.015 122.406 113.355 121.727 113.355 120.829C113.355 119.931 113.015 119.263 112.336 118.825C111.657 118.365 110.661 118.135 109.346 118.135H104.056ZM110.266 133.118C111.668 133.118 112.72 132.888 113.421 132.428C114.144 131.968 114.505 131.256 114.505 130.292C114.505 128.387 113.092 127.434 110.266 127.434H104.056V133.118H110.266Z" fill="white"/>
</svg>
