<svg width="134" height="30" viewBox="0 0 134 30" fill="none" xmlns="http://www.w3.org/2000/svg">
<path d="M29.3597 6.66426L29.1906 6.79379C23.1444 11.5615 17.7253 20.1703 15.4263 24.6541L7.21553 12.6974L14.9287 16.9321C19.5068 10.7544 25.961 5.88708 28.6133 4.22809C28.0683 3.17922 27.2468 2.29974 26.238 1.68499C25.2292 1.07024 24.0716 0.743686 22.8907 0.740723L6.4691 0.740723C4.75339 0.740723 3.10795 1.42307 1.89475 2.63766C0.681564 3.85224 0 5.49957 0 7.21726L0 23.1595C0 24.8772 0.681564 26.5245 1.89475 27.7391C3.10795 28.9537 4.75339 29.636 6.4691 29.636H22.8907C24.6064 29.636 26.2518 28.9537 27.465 27.7391C28.6782 26.5245 29.3597 24.8772 29.3597 23.1595V11.3523C29.3597 9.69145 29.9628 8.08727 31.0566 6.83863L33.3407 4.22809C31.9131 4.86247 30.5747 5.68151 29.3597 6.66426Z" fill="white"/>
<path d="M59.0183 24L58.994 13.7753L53.979 22.1985H52.2018L47.2112 13.9944V24H43.5108V6.95881H46.773L53.1513 17.5487L59.4322 6.95881H62.67L62.7187 24H59.0183ZM74.9416 17.9626V24H70.9977V17.9139L64.4004 6.95881H68.5876L73.1401 14.53L77.6925 6.95881H81.5633L74.9416 17.9626ZM86.1161 24.2921C84.9638 24.2921 83.9007 24.0811 82.9269 23.6592C81.9694 23.221 81.1823 22.6042 80.5655 21.809L82.7565 19.1798C83.6816 20.4295 84.7366 21.0543 85.9213 21.0543C87.5281 21.0543 88.3314 20.113 88.3314 18.2303V10.1236H82.3427V6.95881H92.2509V18.0112C92.2509 20.1049 91.7316 21.6792 90.6929 22.7341C89.6542 23.7728 88.1286 24.2921 86.1161 24.2921ZM104.399 24.2921C102.63 24.2921 101.032 23.9107 99.6033 23.1479C98.1914 22.3851 97.0796 21.3383 96.2681 20.0075C95.4729 18.6604 95.0753 17.1511 95.0753 15.4794C95.0753 13.8077 95.4729 12.3065 96.2681 10.9757C97.0796 9.6286 98.1914 8.57367 99.6033 7.81087C101.032 7.04807 102.63 6.66668 104.399 6.66668C106.168 6.66668 107.759 7.04807 109.171 7.81087C110.583 8.57367 111.694 9.6286 112.506 10.9757C113.317 12.3065 113.723 13.8077 113.723 15.4794C113.723 17.1511 113.317 18.6604 112.506 20.0075C111.694 21.3383 110.583 22.3851 109.171 23.1479C107.759 23.9107 106.168 24.2921 104.399 24.2921ZM104.399 20.9326C105.405 20.9326 106.314 20.7054 107.126 20.2509C107.937 19.7803 108.57 19.1311 109.025 18.3034C109.495 17.4757 109.731 16.5343 109.731 15.4794C109.731 14.4245 109.495 13.4832 109.025 12.6554C108.57 11.8277 107.937 11.1866 107.126 10.7322C106.314 10.2616 105.405 10.0262 104.399 10.0262C103.393 10.0262 102.484 10.2616 101.673 10.7322C100.861 11.1866 100.22 11.8277 99.7494 12.6554C99.295 13.4832 99.0678 14.4245 99.0678 15.4794C99.0678 16.5343 99.295 17.4757 99.7494 18.3034C100.22 19.1311 100.861 19.7803 101.673 20.2509C102.484 20.7054 103.393 20.9326 104.399 20.9326ZM129.2 15.1386C130.174 15.4469 130.937 15.9663 131.489 16.6966C132.04 17.4107 132.316 18.2953 132.316 19.3502C132.316 20.8433 131.732 21.9956 130.564 22.8071C129.411 23.6024 127.723 24 125.5 24H116.687V6.95881H125.013C127.09 6.95881 128.681 7.35644 129.785 8.15169C130.904 8.94695 131.464 10.0262 131.464 11.3895C131.464 12.2172 131.261 12.9557 130.856 13.6049C130.466 14.2541 129.914 14.7653 129.2 15.1386ZM120.607 9.92885V13.9457H124.526C125.5 13.9457 126.238 13.7753 126.741 13.4345C127.245 13.0936 127.496 12.5905 127.496 11.9251C127.496 11.2597 127.245 10.7647 126.741 10.4401C126.238 10.0993 125.5 9.92885 124.526 9.92885H120.607ZM125.208 21.03C126.246 21.03 127.025 20.8596 127.545 20.5187C128.08 20.1779 128.348 19.6504 128.348 18.9363C128.348 17.5243 127.301 16.8184 125.208 16.8184H120.607V21.03H125.208Z" fill="white"/>
</svg>
