<svg width="90" height="19" viewBox="0 0 90 19" fill="none" xmlns="http://www.w3.org/2000/svg">
<path d="M16.0183 18L15.994 7.77529L10.979 16.1985H9.20184L4.21121 7.99439V18H0.510833V0.95881H3.773L10.1513 11.5487L16.4322 0.95881H19.67L19.7187 18H16.0183ZM31.9416 11.9626V18H27.9977V11.9139L21.4004 0.95881H25.5876L30.1401 8.52997L34.6925 0.95881H38.5633L31.9416 11.9626ZM43.1161 18.2921C41.9638 18.2921 40.9007 18.0811 39.9269 17.6592C38.9694 17.221 38.1823 16.6042 37.5655 15.809L39.7565 13.1798C40.6816 14.4295 41.7366 15.0543 42.9213 15.0543C44.5281 15.0543 45.3314 14.113 45.3314 12.2303V4.1236H39.3427V0.95881H49.2509V12.0112C49.2509 14.1049 48.7316 15.6792 47.6929 16.7341C46.6542 17.7728 45.1286 18.2921 43.1161 18.2921ZM61.3992 18.2921C59.6302 18.2921 58.0316 17.9107 56.6033 17.1479C55.1914 16.3851 54.0796 15.3383 53.2681 14.0075C52.4729 12.6604 52.0753 11.1511 52.0753 9.47941C52.0753 7.80775 52.4729 6.3065 53.2681 4.97566C54.0796 3.6286 55.1914 2.57367 56.6033 1.81087C58.0316 1.04807 59.6302 0.666677 61.3992 0.666677C63.1683 0.666677 64.7588 1.04807 66.1708 1.81087C67.5827 2.57367 68.6945 3.6286 69.506 4.97566C70.3174 6.3065 70.7232 7.80775 70.7232 9.47941C70.7232 11.1511 70.3174 12.6604 69.506 14.0075C68.6945 15.3383 67.5827 16.3851 66.1708 17.1479C64.7588 17.9107 63.1683 18.2921 61.3992 18.2921ZM61.3992 14.9326C62.4055 14.9326 63.3143 14.7054 64.1258 14.2509C64.9373 13.7803 65.5703 13.1311 66.0247 12.3034C66.4954 11.4757 66.7307 10.5343 66.7307 9.47941C66.7307 8.42447 66.4954 7.48315 66.0247 6.65544C65.5703 5.82772 64.9373 5.18665 64.1258 4.73222C63.3143 4.26156 62.4055 4.02623 61.3992 4.02623C60.393 4.02623 59.4841 4.26156 58.6726 4.73222C57.8612 5.18665 57.2201 5.82772 56.7494 6.65544C56.295 7.48315 56.0678 8.42447 56.0678 9.47941C56.0678 10.5343 56.295 11.4757 56.7494 12.3034C57.2201 13.1311 57.8612 13.7803 58.6726 14.2509C59.4841 14.7054 60.393 14.9326 61.3992 14.9326ZM86.2002 9.13858C87.174 9.44695 87.9368 9.9663 88.4886 10.6966C89.0404 11.4107 89.3163 12.2953 89.3163 13.3502C89.3163 14.8433 88.7321 15.9956 87.5635 16.8071C86.4112 17.6024 84.7233 18 82.4999 18H73.6871V0.95881H82.013C84.0904 0.95881 85.6809 1.35644 86.7845 2.15169C87.9044 2.94695 88.4643 4.02622 88.4643 5.38952C88.4643 6.21724 88.2614 6.95569 87.8557 7.60487C87.4662 8.25406 86.9143 8.7653 86.2002 9.13858ZM77.6066 3.92885V7.9457H81.5261C82.4999 7.9457 83.2383 7.77529 83.7414 7.43446C84.2446 7.09364 84.4961 6.59052 84.4961 5.9251C84.4961 5.25968 84.2446 4.76468 83.7414 4.44008C83.2383 4.09926 82.4999 3.92885 81.5261 3.92885H77.6066ZM82.2077 15.03C83.2464 15.03 84.0255 14.8596 84.5448 14.5187C85.0804 14.1779 85.3482 13.6504 85.3482 12.9363C85.3482 11.5243 84.3014 10.8184 82.2077 10.8184H77.6066V15.03H82.2077Z" fill="white"/>
</svg>
