<svg width="34" height="30" viewBox="0 0 34 30" fill="none" xmlns="http://www.w3.org/2000/svg">
<path d="M29.3597 6.66426L29.1906 6.79379C23.1444 11.5615 17.7253 20.1703 15.4263 24.6541L7.21553 12.6974L14.9287 16.9321C19.5068 10.7544 25.961 5.88708 28.6133 4.22809C28.0683 3.17922 27.2468 2.29974 26.238 1.68499C25.2292 1.07024 24.0716 0.743686 22.8907 0.740723L6.4691 0.740723C4.75339 0.740723 3.10795 1.42307 1.89475 2.63766C0.681564 3.85224 0 5.49957 0 7.21726L0 23.1595C0 24.8772 0.681564 26.5245 1.89475 27.7391C3.10795 28.9537 4.75339 29.636 6.4691 29.636H22.8907C24.6064 29.636 26.2518 28.9537 27.465 27.7391C28.6782 26.5245 29.3597 24.8772 29.3597 23.1595V11.3523C29.3597 9.69145 29.9628 8.08727 31.0566 6.83863L33.3407 4.22809C31.9131 4.86247 30.5747 5.68151 29.3597 6.66426Z" fill="white"/>
</svg>
