<svg width="26" height="26" viewBox="0 0 26 26" fill="none" xmlns="http://www.w3.org/2000/svg">
<path fill-rule="evenodd" clip-rule="evenodd" d="M11.3157 1.92276C10.4443 1.92276 9.70293 2.5124 9.49482 3.30714H16.4923C16.2842 2.5124 15.5428 1.92276 14.6714 1.92276H11.3157ZM18.4692 3.30714H21.0445C23.7759 3.30714 26 5.49908 26 8.19093C26 8.19093 25.922 9.33048 25.8959 10.9174C25.8933 11.043 25.8309 11.1661 25.7282 11.2404C25.1026 11.6903 24.5303 12.0621 24.4782 12.0877C22.3192 13.4977 19.8102 14.4899 17.1374 14.9834C16.9631 15.0167 16.7914 14.9283 16.703 14.777C15.9538 13.5131 14.5543 12.6902 12.9935 12.6902C11.4431 12.6902 10.0306 13.5041 9.25933 14.7693C9.16958 14.918 9.0005 15.0039 8.82751 14.9718C6.17679 14.4771 3.66783 13.4862 1.52176 12.1005L0.273137 11.2545C0.169085 11.1904 0.104052 11.0751 0.104052 10.9469C0.0650325 10.2931 0 8.19093 0 8.19093C0 5.49908 2.22411 3.30714 4.95548 3.30714H7.51776C7.76488 1.44847 9.36468 0 11.3157 0H14.6713C16.6223 0 18.2221 1.44847 18.4692 3.30714ZM25.5578 13.6902L25.5058 13.7158C22.8785 15.4334 19.7179 16.5743 16.4013 17.0486C15.933 17.1127 15.4648 16.8178 15.3347 16.3564C15.0486 15.3053 14.1251 14.6131 13.0196 14.6131H13.0066H12.9806C11.875 14.6131 10.9515 15.3053 10.6654 16.3564C10.5353 16.8178 10.0671 17.1127 9.59886 17.0486C6.2822 16.5743 3.12162 15.4334 0.494309 13.7158C0.481303 13.703 0.351238 13.6261 0.247185 13.6902C0.130127 13.7542 0.130127 13.9081 0.130127 13.9081L0.221172 20.4454C0.221172 23.1373 2.43228 25.3164 5.16364 25.3164H20.8235C23.5548 25.3164 25.7659 23.1373 25.7659 20.4454L25.87 13.9081C25.87 13.9081 25.87 13.7542 25.7529 13.6902C25.6879 13.6517 25.6099 13.6645 25.5578 13.6902ZM13.969 19.061C13.969 19.5994 13.5398 20.0224 12.9935 20.0224C12.4602 20.0224 12.018 19.5994 12.018 19.061V17.4075C12.018 16.8819 12.4602 16.4461 12.9935 16.4461C13.5398 16.4461 13.969 16.8819 13.969 17.4075V19.061Z" fill="white"/>
</svg>
